<svg width="47" height="47" viewBox="0 0 47 47" fill="none" xmlns="http://www.w3.org/2000/svg">
<path d="M47 -2.05444e-06C40.8279 -1.78464e-06 34.7162 1.21569 29.0139 3.57766C23.3116 5.93964 18.1303 9.40163 13.766 13.766C9.40162 18.1303 5.93963 23.3116 3.57766 29.0139C1.21569 34.7162 -2.59402e-06 40.8279 -2.05444e-06 47L10.5369 47C10.5369 42.2116 11.48 37.4701 13.3124 33.0462C15.1449 28.6223 17.8307 24.6026 21.2167 21.2167C24.6026 17.8307 28.6222 15.1449 33.0462 13.3125C37.4701 11.48 42.2116 10.5369 47 10.5369L47 -2.05444e-06Z" fill="#7C3FFF"/>
</svg>
