<svg width="24" height="25" viewBox="0 0 24 25" fill="none" xmlns="http://www.w3.org/2000/svg">
<path d="M5.00293 22.5002H19.0029C20.1059 22.5002 21.0029 21.6032 21.0029 20.5002V11.5002C21.0031 11.3689 20.9772 11.2388 20.927 11.1175C20.8767 10.9961 20.8029 10.8859 20.7099 10.7932L12.7099 2.7932C12.6171 2.70026 12.5069 2.62652 12.3856 2.57621C12.2643 2.5259 12.1343 2.5 12.0029 2.5C11.8716 2.5 11.7416 2.5259 11.6202 2.57621C11.4989 2.62652 11.3887 2.70026 11.2959 2.7932L3.29593 10.7932C3.20293 10.8859 3.12917 10.9961 3.07889 11.1175C3.02861 11.2388 3.00279 11.3689 3.00293 11.5002V20.5002C3.00293 21.6032 3.89993 22.5002 5.00293 22.5002V22.5002ZM10.0029 20.5002V15.5002H14.0029V20.5002H10.0029ZM5.00293 11.9142L12.0029 4.9142L19.0029 11.9142L19.0039 20.5002H16.0029V15.5002C16.0029 14.3972 15.1059 13.5002 14.0029 13.5002H10.0029C8.89993 13.5002 8.00293 14.3972 8.00293 15.5002V20.5002H5.00293V11.9142Z" fill="#ffffff"/>
</svg>
