<svg width="24" height="24" viewBox="0 0 24 24" fill="none" xmlns="http://www.w3.org/2000/svg">
<path d="M5.00293 22H19.0029C20.1059 22 21.0029 21.103 21.0029 20V11C21.0031 10.8686 20.9772 10.7386 20.927 10.6172C20.8767 10.4959 20.8029 10.3857 20.7099 10.293L12.7099 2.29296C12.6171 2.20001 12.5069 2.12627 12.3856 2.07596C12.2643 2.02565 12.1343 1.99976 12.0029 1.99976C11.8716 1.99976 11.7416 2.02565 11.6202 2.07596C11.4989 2.12627 11.3887 2.20001 11.2959 2.29296L3.29593 10.293C3.20293 10.3857 3.12917 10.4959 3.07889 10.6172C3.02861 10.7386 3.00279 10.8686 3.00293 11V20C3.00293 21.103 3.89993 22 5.00293 22ZM10.0029 20V15H14.0029V20H10.0029ZM5.00293 11.414L12.0029 4.41396L19.0029 11.414L19.0039 20H16.0029V15C16.0029 13.897 15.1059 13 14.0029 13H10.0029C8.89993 13 8.00293 13.897 8.00293 15V20H5.00293V11.414Z" fill="black"/>
</svg>
