<svg width="24" height="25" viewBox="0 0 24 25" fill="none" xmlns="http://www.w3.org/2000/svg">
<path d="M5.00293 22.5H19.0029C20.1059 22.5 21.0029 21.603 21.0029 20.5V11.5C21.0031 11.3687 20.9772 11.2386 20.927 11.1173C20.8767 10.996 20.8029 10.8858 20.7099 10.793L12.7099 2.79302C12.6171 2.70007 12.5069 2.62633 12.3856 2.57602C12.2643 2.52571 12.1343 2.49982 12.0029 2.49982C11.8716 2.49982 11.7416 2.52571 11.6202 2.57602C11.4989 2.62633 11.3887 2.70007 11.2959 2.79302L3.29593 10.793C3.20293 10.8858 3.12917 10.996 3.07889 11.1173C3.02861 11.2386 3.00279 11.3687 3.00293 11.5V20.5C3.00293 21.603 3.89993 22.5 5.00293 22.5ZM10.0029 20.5V15.5H14.0029V20.5H10.0029ZM5.00293 11.914L12.0029 4.91402L19.0029 11.914L19.0039 20.5H16.0029V15.5C16.0029 14.397 15.1059 13.5 14.0029 13.5H10.0029C8.89993 13.5 8.00293 14.397 8.00293 15.5V20.5H5.00293V11.914Z" fill="#00ff00"/>
</svg>
