<svg width="19" height="20" viewBox="0 0 19 20" fill="none" xmlns="http://www.w3.org/2000/svg">
<path fill-rule="evenodd" clip-rule="evenodd" d="M12.25 7.5C12.25 10.3995 9.8995 12.75 7 12.75C4.10051 12.75 1.75 10.3995 1.75 7.5C1.75 4.60051 4.10051 2.25 7 2.25C9.8995 2.25 12.25 4.60051 12.25 7.5ZM11.1922 13.1064C10.0236 13.9816 8.57234 14.5 7 14.5C3.13401 14.5 0 11.366 0 7.5C0 3.63401 3.13401 0.5 7 0.5C10.866 0.5 14 3.63401 14 7.5C14 9.07234 13.4816 10.5236 12.6064 11.6922L18.7071 17.7929L17.2929 19.2071L11.1922 13.1064Z" fill="#00ff00"/>
</svg>
