<svg width="21" height="20" viewBox="0 0 21 20" fill="none" xmlns="http://www.w3.org/2000/svg">
<path d="M20 7.67015C19.9368 7.48723 19.822 7.32657 19.6693 7.20765C19.5167 7.08872 19.3328 7.01664 19.14 7.00014L13.45 6.17015L10.9 1.00015C10.8181 0.831074 10.6902 0.688487 10.5311 0.588719C10.3719 0.48895 10.1878 0.436035 9.99998 0.436035C9.81212 0.436035 9.62806 0.48895 9.46889 0.588719C9.30971 0.688487 9.18186 0.831074 9.09998 1.00015L6.54998 6.16014L0.859977 7.00014C0.6749 7.02645 0.500902 7.10411 0.357728 7.2243C0.214554 7.3445 0.107937 7.50242 0.0499774 7.68015C-0.00307759 7.85382 -0.00783865 8.03866 0.0362052 8.21484C0.080249 8.39101 0.171435 8.55187 0.299977 8.68015L4.42998 12.6801L3.42998 18.3601C3.3896 18.5486 3.40453 18.7446 3.47296 18.9248C3.54139 19.1049 3.66041 19.2614 3.81571 19.3755C3.971 19.4896 4.15595 19.5564 4.34831 19.5679C4.54066 19.5794 4.73224 19.535 4.89998 19.4401L9.99998 16.7701L15.1 19.4401C15.2403 19.5193 15.3988 19.5607 15.56 19.5601C15.7718 19.5609 15.9784 19.4944 16.15 19.3701C16.3051 19.259 16.4252 19.1058 16.4961 18.9286C16.567 18.7514 16.5857 18.5576 16.55 18.3701L15.55 12.6901L19.68 8.69014C19.8244 8.56782 19.9311 8.40705 19.9877 8.22649C20.0444 8.04594 20.0486 7.85302 20 7.67015ZM13.85 11.6701C13.7342 11.7826 13.6474 11.9213 13.5969 12.0745C13.5464 12.2278 13.5337 12.3909 13.56 12.5501L14.28 16.7501L10.52 14.7501C10.3738 14.6779 10.213 14.6403 10.05 14.6403C9.88694 14.6403 9.72611 14.6779 9.57998 14.7501L5.81998 16.7501L6.53998 12.5501C6.56622 12.3909 6.55354 12.2278 6.50305 12.0745C6.45255 11.9213 6.36572 11.7826 6.24998 11.6701L3.24998 8.67015L7.45998 8.06015C7.62198 8.03761 7.77598 7.97569 7.90848 7.8798C8.04098 7.78391 8.14794 7.65698 8.21998 7.51015L9.99998 3.70015L11.88 7.52015C11.952 7.66698 12.059 7.79391 12.1915 7.8898C12.324 7.98569 12.478 8.04761 12.64 8.07014L16.85 8.68015L13.85 11.6701Z" fill="black"/>
</svg>
