<svg width="47" height="47" viewBox="0 0 47 47" fill="none" xmlns="http://www.w3.org/2000/svg">
<path d="M4.10887e-06 -8.21774e-06C3.56929e-06 6.17212 1.21569 12.2838 3.57766 17.9861C5.93964 23.6884 9.40163 28.8697 13.766 33.234C18.1303 37.5984 23.3116 41.0604 29.0139 43.4223C34.7162 45.7843 40.8279 47 47 47L47 36.4631C42.2116 36.4631 37.4701 35.52 33.0462 33.6875C28.6223 31.8551 24.6026 29.1692 21.2167 25.7833C17.8308 22.3974 15.1449 18.3777 13.3125 13.9538C11.48 9.52992 10.5369 4.7884 10.5369 -7.29658e-06L4.10887e-06 -8.21774e-06Z" fill="#7C3FFF"/>
</svg>
