<svg width="47" height="47" viewBox="0 0 47 47" fill="none" xmlns="http://www.w3.org/2000/svg">
<path d="M-4.10887e-06 47.0001C6.17212 47.0001 12.2838 45.7844 17.9861 43.4224C23.6884 41.0604 28.8697 37.5984 33.234 33.2341C37.5984 28.8697 41.0604 23.6885 43.4223 17.9862C45.7843 12.2839 47 6.17219 47 5.72205e-05L36.4631 6.05746e-05C36.4631 4.78847 35.52 9.52999 33.6875 13.9539C31.8551 18.3778 29.1692 22.3975 25.7833 25.7834C22.3974 29.1693 18.3777 31.8552 13.9538 33.6876C9.52992 35.52 4.7884 36.4632 -3.64829e-06 36.4632L-4.10887e-06 47.0001Z" fill="#7C3FFF"/>
</svg>
