<svg width="251" height="247" viewBox="0 0 251 247" fill="none" xmlns="http://www.w3.org/2000/svg">
<g clip-path="url(#clip0_2_2569)">
<path opacity="0.38" d="M111.86 217.562C88.0082 211.555 70.3611 190.141 70.3611 164.659H97.4922C97.4922 179.976 110.039 192.395 125.511 192.395C140.984 192.395 153.531 179.976 153.531 164.659C153.531 149.343 140.984 136.923 125.511 136.923C111.655 136.923 98.9951 131.851 89.3062 123.5C77.7046 113.492 70.3611 98.7729 70.3611 82.3408C70.3611 56.8587 88.0082 35.4564 111.86 29.438V0C48.9681 6.72837 0 59.4509 0 123.5C0 187.549 48.9681 240.272 111.86 247V217.562Z" fill="white"/>
<path opacity="0.38" d="M139.447 0.0338135V29.5169C163.151 35.6367 180.65 56.9601 180.65 82.3408H153.519C153.519 67.0245 140.973 54.6046 125.5 54.6046C110.027 54.6046 97.4808 67.0245 97.4808 82.3408C97.4808 97.6572 110.027 110.077 125.5 110.077C139.356 110.077 152.016 115.149 161.705 123.5C173.307 133.508 180.65 148.227 180.65 164.659C180.65 190.04 163.151 211.375 139.447 217.483V246.966C202.191 240.103 251 187.448 251 123.5C251 59.5523 202.191 6.89743 139.447 0.0338135Z" fill="white"/>
<path opacity="0.38" d="M111.86 217.562C88.0083 211.555 70.3611 190.141 70.3611 164.659H97.4922C97.4922 179.975 110.039 192.395 125.511 192.395C140.984 192.395 153.531 179.975 153.531 164.659C153.531 149.343 140.984 136.923 125.511 136.923C111.655 136.923 98.9951 131.851 89.3062 123.5C77.7046 113.492 70.3611 98.7729 70.3611 82.3408C70.3611 56.8587 88.0083 35.4564 111.86 29.438V13.1975C56.2889 19.8583 13.2411 66.6977 13.2411 123.5C13.2411 180.302 56.2889 227.142 111.86 233.802V217.562Z" fill="#363636"/>
<path opacity="0.38" d="M139.447 13.2313V29.5169C163.151 35.6367 180.65 56.9601 180.65 82.3408H153.519C153.519 67.0245 140.973 54.6046 125.5 54.6046C110.027 54.6046 97.4808 67.0245 97.4808 82.3408C97.4808 97.6572 110.027 110.077 125.5 110.077C139.356 110.077 152.016 115.149 161.705 123.5C173.307 133.508 180.65 148.227 180.65 164.659C180.65 190.04 163.151 211.375 139.447 217.483V233.769C194.859 226.973 237.77 180.201 237.77 123.5C237.77 66.7991 194.859 20.0273 139.447 13.2313Z" fill="#363636"/>
<path opacity="0.38" d="M111.86 13.1975C83.5907 16.5899 58.5545 30.3735 40.7821 50.5924C60.1371 34.9041 84.8887 25.4821 111.86 25.4821V13.1975Z" fill="white"/>
<path opacity="0.38" d="M139.447 13.2313V28.8745C188.108 41.0464 224.119 84.6625 224.119 136.619C224.119 164.513 213.736 190.017 196.578 209.526C221.717 189.149 237.759 158.19 237.759 123.511C237.759 66.8103 194.859 20.0386 139.436 13.2426L139.447 13.2313Z" fill="white"/>
</g>
<defs>
<clipPath id="clip0_2_2569">
<rect width="251" height="247" fill="white"/>
</clipPath>
</defs>
</svg>
