<svg width="1275" height="801" viewBox="0 0 1275 801" fill="none" xmlns="http://www.w3.org/2000/svg">
<g clip-path="url(#clip0_2_2568)">
<path opacity="0.57" d="M1275 801L1209.14 624.909L1195.19 638.664C1187.2 646.551 1174.37 646.449 1166.48 638.481L709.273 175.623L517.572 175.195C512.204 175.195 507.06 173.055 503.258 169.244L333.741 0H48V49.8052L294.112 49.3773C299.48 49.3773 304.624 51.4763 308.426 55.2463L479.488 224.429L672.083 224.959C677.451 224.959 682.575 227.119 686.378 230.91L1130.13 673.98C1138.14 681.989 1138.1 694.991 1130.05 702.938L1111.89 720.831L1275 801Z" fill="#444444" fill-opacity="0.7"/>
</g>
<g clip-path="url(#clip1_2_2568)">
<path opacity="0.75" d="M1111 73L915.687 147.807L944.674 175.128C951.61 181.671 951.61 192.366 944.674 198.89L597.372 526.089C590.571 532.502 579.643 532.483 572.861 526.052L419.381 380.737L0 801H69.9873L405.372 459.603C412.115 452.746 423.45 452.579 430.406 459.233L586.793 608.829L981.76 233.254C988.542 226.804 999.489 226.785 1006.29 233.198L1031.54 256.997L1111 73Z" fill="#363636" fill-opacity="0.7"/>
</g>
<defs>
<clipPath id="clip0_2_2568">
<rect width="1227" height="801" fill="white" transform="translate(48)"/>
</clipPath>
<clipPath id="clip1_2_2568">
<rect width="1111" height="728" fill="white" transform="translate(0 73)"/>
</clipPath>
</defs>
</svg>
